HIERARCHY
ROOT RootJoint
{
    OFFSET   0.000000   0.000000   0.000000
    CHANNELS 6 Xposition Yposition Zposition Xrotation Yrotation Zrotation
    JOINT pelvis_lowerback
    {
        OFFSET   0.000000   0.093605   0.000000
        CHANNELS 3 Xrotation Yrotation Zrotation
        JOINT lowerback_torso
        {
            OFFSET   0.000000   0.100000   0.000000
            CHANNELS 3 Xrotation Yrotation Zrotation
            JOINT torso_head
            {
                OFFSET   0.000000   0.282350   0.000000
                CHANNELS 3 Xrotation Yrotation Zrotation
                End Site
                {
                    OFFSET   0.000000   0.192650   0.000000
                }
            }
            JOINT rTorso_Clavicle
            {
                OFFSET  -0.001000   0.157500   0.000000
                CHANNELS 3 Xrotation Yrotation Zrotation
                JOINT rShoulder
                {
                    OFFSET  -0.117647   0.000000   0.000000
                    CHANNELS 3 Xrotation Yrotation Zrotation
                    JOINT rElbow
                    {
                        OFFSET  -0.245000   0.000000   0.000000
                        CHANNELS 3 Xrotation Yrotation Zrotation
                        JOINT rWrist
                        {
                            OFFSET  -0.240000   0.000000   0.000000
                            CHANNELS 3 Xrotation Yrotation Zrotation
                            End Site
                            {
                                OFFSET  -0.116353  -0.002500   0.000000
                            }
                        }
                    }
                }
            }
            JOINT lTorso_Clavicle
            {
                OFFSET   0.001000   0.157500   0.000000
                CHANNELS 3 Xrotation Yrotation Zrotation
                JOINT lShoulder
                {
                    OFFSET   0.117647   0.000000   0.000000
                    CHANNELS 3 Xrotation Yrotation Zrotation
                    JOINT lElbow
                    {
                        OFFSET   0.245000   0.000000   0.000000
                        CHANNELS 3 Xrotation Yrotation Zrotation
                        JOINT lWrist
                        {
                            OFFSET   0.240000   0.000000   0.000000
                            CHANNELS 3 Xrotation Yrotation Zrotation
                            End Site
                            {
                                OFFSET   0.116353  -0.002500   0.000000
                            }
                        }
                    }
                }
            }
        }
    }
    JOINT rHip
    {
        OFFSET  -0.100000  -0.051395   0.000000
        CHANNELS 3 Xrotation Yrotation Zrotation
        JOINT rKnee
        {
            OFFSET   0.000000  -0.410000   0.000000
            CHANNELS 3 Xrotation Yrotation Zrotation
            JOINT rAnkle
            {
                OFFSET   0.000000  -0.390000   0.000000
                CHANNELS 3 Xrotation Yrotation Zrotation
                JOINT rToeJoint
                {
                    OFFSET   0.000000  -0.050000   0.130000
                    CHANNELS 3 Xrotation Yrotation Zrotation
                    End Site
                    {
                        OFFSET  -0.010000   0.002000   0.060000
                    }
                }
            }
        }
    }
    JOINT lHip
    {
        OFFSET   0.100000  -0.051395   0.000000
        CHANNELS 3 Xrotation Yrotation Zrotation
        JOINT lKnee
        {
            OFFSET   0.000000  -0.410000   0.000000
            CHANNELS 3 Xrotation Yrotation Zrotation
            JOINT lAnkle
            {
                OFFSET   0.000000  -0.390000   0.000000
                CHANNELS 3 Xrotation Yrotation Zrotation
                JOINT lToeJoint
                {
                    OFFSET   0.000000  -0.050000   0.130000
                    CHANNELS 3 Xrotation Yrotation Zrotation
                    End Site
                    {
                        OFFSET   0.010000   0.002000   0.060000
                    }
                }
            }
        }
    }
}
MOTION
Frames: 7
Frame Time:   0.008333
 -2.376719   0.925631   3.975860   0.000000   0.000000   0.000000   0.000000   0.000000   0.000000   0.000000   0.000000   0.000000   0.000000   0.000000   0.000000   0.000000   0.000000   0.000000   0.000000   0.000000   0.000000   0.000000   0.000000   0.000000   0.000000   0.000000   0.000000   0.000000   0.000000   0.000000   0.000000   0.000000   0.000000   0.000000   0.000000   0.000000   0.000000   0.000000   0.000000   0.000000   0.000000   0.000000   0.000000   0.000000   0.000000   0.000000   0.000000   0.000000   0.000000   0.000000   0.000000   0.000000   0.000000   0.000000   0.000000   0.000000   0.000000   0.000000   0.000000   0.000000   0.000000   0.000000   0.000000
 -2.376381   0.923665   3.972044  -0.274548   0.240850  -0.162376   1.600364   0.147256   0.483056  -1.020153  -0.197411  -0.249406   0.277214  -0.148128   0.103881  -1.041219  -0.106181  -0.972741  -3.203482   0.177937  -0.532116  -0.045558   3.362498   0.116970  -0.000841  -2.385329   1.156246  -1.484384   0.006299   0.645902  -3.375003  -0.412232   0.273402  -0.033948  -3.378909  -0.135248  -0.067359   1.994753  -0.402570  -1.060881  -0.735402  -0.168370   3.374754   0.009005  -0.014859  -3.340424  -0.362976   0.188727  -0.264464  -0.000332   0.001953  -1.476564   0.324351   0.491958   3.679125  -0.009904   0.018768  -1.861258  -0.254408  -0.521504  -0.034538  -0.000056  -0.000095
 -2.376099   0.923045   3.967044  -0.948245   0.484822  -0.439087   3.511197   0.352709   1.082261  -1.723283  -0.372521  -0.464970   0.589021  -0.286915   0.234393  -2.039290   0.216533  -2.201469  -6.374864   0.765062  -1.383766  -0.113354   6.902572   0.209517  -0.120734  -3.731616   1.919647  -2.900677  -0.416800   1.364545  -6.738937  -1.229882   0.692224  -0.087051  -6.950066  -0.243014  -0.282472   2.840626  -0.594353  -2.222805  -1.629986  -0.023311   6.820685   0.007334  -0.032079  -6.317236  -0.853677   0.569593  -0.515098   0.000350   0.004040  -3.065899   0.817825   0.889861   7.584389  -0.007636   0.042173  -3.469654  -0.341061  -1.244299   0.043443   0.000388   0.000394
 -2.376060   0.921574   3.961779  -1.817810   0.651327  -0.641315   5.443384   0.609307   1.560377  -2.206197  -0.493951  -0.699379   0.896917  -0.413671   0.373868  -2.941005   0.866605  -3.693770  -9.401108   1.643589  -2.412145  -0.194105  10.486373   0.279969  -0.255257  -4.401595   2.358265  -4.196575  -1.129067   2.304315 -10.022967  -2.313565   1.248486  -0.154436 -10.606970  -0.327575  -0.504725   3.056923  -0.625089  -3.308139  -2.406164  -0.058118  10.449485   0.006310  -0.045952  -9.193665  -1.248524   0.774672  -0.821752   0.000384   0.005884  -4.578138   1.122208   1.551552  11.550277  -0.014651   0.054613  -5.077812  -0.532539  -1.691771   0.075856   0.000329   0.000418
 -2.376131   0.919261   3.956533  -2.782882   0.804512  -0.747299   7.344310   0.873241   1.937673  -2.565489  -0.587235  -0.979369   1.180183  -0.531387   0.503207  -3.743309   1.746669  -5.351042 -12.200616   2.720532  -3.511778  -0.269265  13.907984   0.326395  -0.402300  -4.535810   2.417422  -5.379028  -2.047401   3.373785 -13.073383  -3.541151   1.845981  -0.225208 -14.329393  -0.390479  -0.722990   2.847370  -0.399015  -4.327956  -3.110395  -0.351548  14.100230   0.007973  -0.056680 -11.898473  -1.606539   0.912090  -1.104430  -0.000080   0.006944  -6.070828   1.375041   2.395530  15.494141  -0.027101   0.066493  -6.581145  -0.697429  -2.112354   0.103206   0.000215   0.000429
 -2.376273   0.916036   3.951553  -3.793951   0.991104  -0.768992   9.179246   1.121898   2.235142  -2.842721  -0.673693  -1.294388   1.438012  -0.641173   0.621880  -4.448221   2.754945  -7.108234 -14.788313   3.920628  -4.628107  -0.332283  17.149877   0.355345  -0.549850  -4.343518   2.175274  -6.451979  -3.089552   4.515433 -15.906466  -4.853433   2.436886  -0.294079 -18.097504  -0.437457  -0.927366   2.357588   0.017303  -5.254052  -3.723071  -0.928942  17.763104   0.013792  -0.064122 -14.436994  -1.926547   0.983515  -1.367028  -0.000970   0.007320  -7.564408   1.578286   3.390785  19.401751  -0.041845   0.080713  -7.986342  -0.837616  -2.507807   0.126702   0.000085   0.000446
 -2.376505   0.911850   3.947025  -4.814760   1.218290  -0.733178  10.921402   1.353052   2.473641  -3.068578  -0.758277  -1.626601   1.673803  -0.743405   0.731870  -5.062629   3.822434  -8.912510 -17.180082   5.190896  -5.724574  -0.380961  20.208287   0.371868  -0.689885  -3.951651   1.714406  -7.422624  -4.193193   5.690661 -18.539348  -6.204312   2.996289  -0.358661 -21.897116  -0.473122  -1.113281   1.692812   0.563513  -6.062498  -4.241684  -1.761681  21.439206   0.023544  -0.069849 -16.811380  -2.215539   1.007338  -1.609035  -0.002103   0.007219  -9.067109   1.725423   4.528986  23.269210  -0.056641   0.097548  -9.299870  -0.956292  -2.879095   0.145626  -0.000032   0.000460
